<svg enable-background="new 0 0 113.4 113.4" viewBox="0 0 113.4 113.4" xmlns="http://www.w3.org/2000/svg"><g stroke="#000" stroke-linecap="round" stroke-linejoin="round" stroke-miterlimit="10"><path d="m65.3 76.1h-17.3c-1 0-1.7-.8-1.7-1.7v-1.4c0-1 .8-1.7 1.7-1.7h17.3c1 0 1.7.8 1.7 1.7v1.4c.1.9-.7 1.7-1.7 1.7z" fill="#eebfb2"/><path d="m64.2 81h-15c-1 0-1.7-.8-1.7-1.7v-1.4c0-1 .8-1.7 1.7-1.7h15c1 0 1.7.8 1.7 1.7v1.4c0 .9-.8 1.7-1.7 1.7z" fill="#eebfb2"/><path d="m63 85.8h-12.6c-1 0-1.7-.8-1.7-1.7v-1.4c0-1 .8-1.7 1.7-1.7h12.6c1 0 1.7.8 1.7 1.7v1.4c0 1-.8 1.7-1.7 1.7z" fill="#eebfb2"/><path d="m54.8 85.8h3.8c1.3 0 2.4 0 2.4 1 0 1.1-1.1 1.9-2.4 1.9h-3.8c-1.3 0-2.4-.9-2.4-1.9 0-1 1.1-1 2.4-1z" fill="#b67f6f"/><g fill="#fff"><path d="m70.7 30.4c-7.7-7.7-20.2-7.7-27.9 0-7.6 7.5-7.8 19.6-.6 27.4s5.9 6.3 5.9 13.5h17.2c0-7.2 5.9-13.5 5.9-13.5 7.1-7.8 7-19.9-.5-27.4z"/><path d="m59.9 71.2s.6-16.4 4.8-16.4"/><path d="m53.5 71.2s-.6-16.4-4.8-16.4"/><path d="m56.7 71.2v-17"/></g></g></svg>